<svg width="24" height="24" viewBox="0 0 24 24" fill="none" xmlns="http://www.w3.org/2000/svg">
<g clip-path="url(#clip0_1_1398)">
<path d="M18 4.8001C18 4.13738 17.4627 3.6001 16.8 3.6001H1.2C0.537281 3.6001 0 4.13738 0 4.8001C0 5.46282 0.537281 6.0001 1.2 6.0001H16.8C17.4627 6.0001 18 5.46277 18 4.8001ZM1.2 10.8001H22.8C23.4627 10.8001 24 11.3374 24 12.0001C24 12.6628 23.4627 13.2001 22.8 13.2001H1.2C0.537281 13.2001 0 12.6628 0 12.0001C0 11.3374 0.537281 10.8001 1.2 10.8001ZM1.2 18.0001H12C12.6627 18.0001 13.2 18.5374 13.2 19.2001C13.2 19.8628 12.6627 20.4001 12 20.4001H1.2C0.537281 20.4001 0 19.8628 0 19.2001C0 18.5374 0.537281 18.0001 1.2 18.0001Z" fill="black"/>
</g>
<defs>
<clipPath id="clip0_1_1398">
<rect width="24" height="24" fill="white" transform="matrix(-1 0 0 1 24 0)"/>
</clipPath>
</defs>
</svg>
